<?xml version="1.0" standalone="no"?>
<!DOCTYPE svg PUBLIC "-//W3C//DTD SVG 20010904//EN"
 "http://www.w3.org/TR/2001/REC-SVG-20010904/DTD/svg10.dtd">
<svg version="1.0" xmlns="http://www.w3.org/2000/svg"
 width="475.000000pt" height="475.000000pt" viewBox="0 0 475.000000 475.000000"
 preserveAspectRatio="xMidYMid meet">

<g transform="translate(0.000000,475.000000) scale(0.100000,-0.100000)"
fill="#000000" stroke="none">
<path d="M1848 2694 c-24 -13 -48 -42 -48 -58 0 -15 24 -4 41 18 26 33 70 41
108 22 76 -40 66 -127 -18 -164 l-36 -16 29 -4 c63 -8 115 70 95 143 -18 65
-105 95 -171 59z"/>
<path d="M710 2635 l0 -55 65 0 65 0 0 -82 c0 -131 11 -218 26 -218 11 0 14
33 14 164 0 186 6 176 -92 176 l-48 0 0 35 c0 24 -5 35 -15 35 -12 0 -15 -13
-15 -55z"/>
<path d="M1080 2526 c0 -163 0 -165 26 -196 58 -68 134 -78 239 -31 40 18 65
36 65 45 0 23 -20 20 -92 -14 -88 -42 -110 -39 -175 23 l-33 31 0 153 c0 129
-2 153 -15 153 -13 0 -15 -25 -15 -164z"/>
<path d="M1312 2533 c2 -114 6 -157 16 -161 9 -3 12 33 12 157 0 138 -2 161
-15 161 -13 0 -15 -22 -13 -157z"/>
<path d="M3481 2491 c-41 -110 -74 -203 -74 -208 2 -13 60 -26 87 -19 40 10
31 26 -14 26 -22 0 -40 3 -40 8 0 4 30 87 66 185 l67 177 88 0 c53 0 89 4 89
10 0 6 -28 10 -62 10 -35 0 -79 3 -98 6 l-35 5 -74 -200z"/>
<path d="M2178 2674 c-5 -4 -8 -76 -8 -160 l0 -153 30 -35 c34 -38 86 -66 124
-66 36 0 166 60 166 76 0 18 2 19 -72 -16 -86 -41 -123 -39 -176 6 l-42 36 -1
106 c-1 125 -11 217 -21 206z"/>
<path d="M2400 2525 c0 -142 8 -189 24 -132 8 29 8 216 0 256 -15 71 -24 22
-24 -124z"/>
<path d="M2536 2663 c-3 -3 -6 -26 -6 -49 l0 -43 68 -3 67 -3 3 -153 c4 -207
22 -192 22 19 l0 159 -65 0 -65 0 0 34 c0 34 -11 52 -24 39z"/>
<path d="M2897 2663 c-4 -3 -7 -96 -7 -205 0 -169 2 -198 15 -198 13 0 15 29
15 205 0 187 -4 218 -23 198z"/>
<path d="M3020 2465 c0 -130 4 -205 10 -205 6 0 10 75 10 205 0 130 -4 205
-10 205 -6 0 -10 -75 -10 -205z"/>
<path d="M3320 2523 c1 -82 1 -163 1 -182 l-1 -33 -54 46 c-58 49 -66 53 -66
34 0 -15 123 -128 139 -128 12 0 15 230 4 343 -11 120 -25 73 -23 -80z"/>
<path d="M1720 2476 c0 -101 3 -191 6 -200 4 -12 20 -16 55 -16 27 0 49 5 49
10 0 6 -18 10 -40 10 l-40 0 0 159 c0 162 -6 221 -21 221 -5 0 -9 -83 -9 -184z"/>
<path d="M3280 2550 c0 -53 4 -90 10 -90 6 0 10 37 10 90 0 53 -4 90 -10 90
-6 0 -10 -37 -10 -90z"/>
<path d="M932 2598 c3 -7 25 -14 51 -16 37 -2 47 0 47 12 0 12 -12 16 -51 16
-36 0 -49 -4 -47 -12z"/>
<path d="M3592 2598 c3 -8 21 -11 51 -9 44 2 48 1 68 -33 35 -60 52 -45 22 19
-17 35 -17 35 -81 35 -45 0 -63 -3 -60 -12z"/>
<path d="M3080 2436 c0 -99 4 -167 10 -171 6 -4 10 43 10 134 0 78 3 141 8
141 4 0 45 -38 92 -85 85 -85 100 -96 100 -72 0 13 -200 217 -213 217 -4 0 -7
-74 -7 -164z"/>
<path d="M2760 2580 c0 -5 20 -10 45 -10 25 0 45 5 45 10 0 6 -20 10 -45 10
-25 0 -45 -4 -45 -10z"/>
<path d="M2936 2489 c-8 -40 -8 -157 0 -198 13 -64 24 -16 24 105 0 119 -10
159 -24 93z"/>
<path d="M1981 2490 c-13 -11 -34 -20 -48 -20 -15 0 -23 -5 -20 -12 9 -28 103
5 115 40 6 18 -20 14 -47 -8z"/>
<path d="M3672 2423 c-87 -5 -79 -27 9 -24 l64 2 29 -65 c28 -65 29 -66 67
-66 44 0 53 17 12 22 -23 2 -34 15 -63 70 -19 38 -39 67 -45 66 -5 -1 -38 -3
-73 -5z"/>
<path d="M1830 2410 c0 -5 11 -10 24 -10 21 0 28 -10 52 -70 l27 -70 79 0 c45
0 78 4 78 10 0 6 -29 10 -67 10 l-68 0 -29 70 c-27 67 -30 70 -62 70 -19 0
-34 -4 -34 -10z"/>
</g>
</svg>
